<?xml version="1.0" encoding="UTF-8"?>
<svg xmlns="http://www.w3.org/2000/svg" viewBox="0 0 128 128">
  <title>Calendarizer</title>
  <defs>
    <linearGradient id="g" x1="0" y1="0" x2="1" y2="1">
      <stop offset="0%" stop-color="#2563eb"/>
      <stop offset="100%" stop-color="#0ea5e9"/>
    </linearGradient>
  </defs>
  <rect x="10" y="20" width="108" height="98" rx="12" ry="12" fill="#0f172a" stroke="url(#g)" stroke-width="3"/>
  <rect x="10" y="20" width="108" height="26" rx="8" ry="8" fill="#1f2937"/>
  <circle cx="36" cy="20" r="8" fill="#e2e8f0"/>
  <circle cx="92" cy="20" r="8" fill="#e2e8f0"/>
  <g fill="#e2e8f0">
    <rect x="24" y="56" width="16" height="12" rx="2"/>
    <rect x="44" y="56" width="16" height="12" rx="2"/>
    <rect x="64" y="56" width="16" height="12" rx="2"/>
    <rect x="84" y="56" width="16" height="12" rx="2"/>
    <rect x="24" y="72" width="16" height="12" rx="2"/>
    <rect x="44" y="72" width="16" height="12" rx="2"/>
    <rect x="64" y="72" width="16" height="12" rx="2"/>
    <rect x="84" y="72" width="16" height="12" rx="2"/>
    <rect x="24" y="88" width="16" height="12" rx="2"/>
    <rect x="44" y="88" width="16" height="12" rx="2"/>
    <rect x="64" y="88" width="16" height="12" rx="2"/>
    <rect x="84" y="88" width="16" height="12" rx="2"/>
  </g>
</svg>

